<svg id="visual" viewBox="0 0 960 300" width="960" height="300" xmlns="http://www.w3.org/2000/svg" xmlns:xlink="http://www.w3.org/1999/xlink" version="1.1"><path d="M0 241L22.8 235.8C45.7 230.7 91.3 220.3 137 216.5C182.7 212.7 228.3 215.3 274 223.5C319.7 231.7 365.3 245.3 411.2 245.3C457 245.3 503 231.7 548.8 231.7C594.7 231.7 640.3 245.3 686 241.8C731.7 238.3 777.3 217.7 823 206.2C868.7 194.7 914.3 192.3 937.2 191.2L960 190L960 301L937.2 301C914.3 301 868.7 301 823 301C777.3 301 731.7 301 686 301C640.3 301 594.7 301 548.8 301C503 301 457 301 411.2 301C365.3 301 319.7 301 274 301C228.3 301 182.7 301 137 301C91.3 301 45.7 301 22.8 301L0 301Z" fill="#ffffff" stroke-linecap="round" stroke-linejoin="miter"></path></svg>