<svg id="visual" viewBox="0 0 960 300" width="960" height="300" xmlns="http://www.w3.org/2000/svg" xmlns:xlink="http://www.w3.org/1999/xlink" version="1.1"><path d="M0 245L32 246.2C64 247.3 128 249.7 192 242C256 234.3 320 216.7 384 213.8C448 211 512 223 576 231.5C640 240 704 245 768 241.2C832 237.3 896 224.7 928 218.3L960 212L960 301L928 301C896 301 832 301 768 301C704 301 640 301 576 301C512 301 448 301 384 301C320 301 256 301 192 301C128 301 64 301 32 301L0 301Z" fill="#ffffff" stroke-linecap="round" stroke-linejoin="miter"></path></svg>