<svg id="visual" viewBox="0 0 960 300" width="960" height="300" xmlns="http://www.w3.org/2000/svg" xmlns:xlink="http://www.w3.org/1999/xlink" version="1.1"><path d="M0 189L26.7 191.5C53.3 194 106.7 199 160 185.7C213.3 172.3 266.7 140.7 320 138.7C373.3 136.7 426.7 164.3 480 184.5C533.3 204.7 586.7 217.3 640 200.3C693.3 183.3 746.7 136.7 800 126.3C853.3 116 906.7 142 933.3 155L960 168L960 301L933.3 301C906.7 301 853.3 301 800 301C746.7 301 693.3 301 640 301C586.7 301 533.3 301 480 301C426.7 301 373.3 301 320 301C266.7 301 213.3 301 160 301C106.7 301 53.3 301 26.7 301L0 301Z" fill="#ffffff" stroke-linecap="round" stroke-linejoin="miter"></path></svg>